<?xml version="1.0" encoding="UTF-8"?>
<svg id="Lager_2" xmlns="http://www.w3.org/2000/svg" xmlns:xlink="http://www.w3.org/1999/xlink" version="1.1" viewBox="0 0 1904.1 272.7">
  <!-- Generator: Adobe Illustrator 30.2.1, SVG Export Plug-In . SVG Version: 2.1.1 Build 1)  -->
  <defs>
    <style>
      .st0 {
        mask: url(#mask);
      }

      .st1 {
        fill: #e0e0e0;
      }

      .st2 {
        mask: url(#mask-2);
      }

      .st3 {
        mask: url(#mask-3);
      }

      .st4 {
        mask: url(#mask-1);
      }

      .st5 {
        fill: #fff;
      }

      .st6 {
        fill: #1f1f1f;
      }

      .st7 {
        fill: #011111;
      }
    </style>
    <mask id="mask" x="2316.3" y="415.9" width="635" height="802" maskUnits="userSpaceOnUse">
      <g>
        <path d="M2540.3,415.9c.3,16.8.7,33.6,1,50.4,1.3,6.7,2.7,13.3,4,20,1.3,21.7-6.7,18.5-22.5,27.5-28.5,3.6-54.3,17.4-82,23-3.3,1.7-6.7,3.3-10,5-14.8,1.1-27.2,9.5-41,15-3.8,5.5-7.7,11-11.5,16.5-17.3,26.1-30.3,64.3-41,93.9-1.3,9-2.7,18-4,27-.7.3-1.3.7-2,1-1.7,10.3-3.3,20.6-5,31-.7.7-1.3,1.3-2,2-2.7,14.5-5.3,29-8,43.4v-355.6h224Z"/>
        <path class="st5" d="M2751.3,415.9c-4.1,16.4-5.3,33.5-5,50.4-9.4,31.9-10.8,34.2,19.5,47.4,12.8-.9,25.4,10.9,33,14,18,6.3,36,12.7,54,19,14.5,6.8,29,13.6,43.5,20.5,6.7,12.7,13.3,25.3,20,38,25.9,57.1,30,95.2,35,157.3v42.9c-3.4,29-5.9,57.7-13,86.4-.6,10,3,18.4-5,26,1.7,11.3,3.3,22.6,5,34-2.7,3-5.3,6-8,9-.3,26-.7,51.9-1,77.9l-2,2c-2.3,22.9-5,43.8-11,65.9v17c-1,2.3-2,4.7-3,7,0,15.9-1.2,73.8-5,82.9-.8,1.2-1.7,2.3-2.5,3.5h-548c-1.4-.9.8-27.6-4.5-30.5-1.7-22-3.3-43.9-5-65.9-4.7-16.7-5.5-34.4-13-50.9-4-42.3-8-84.6-12-126.8,7.1-14.8-.5-29-3-43.9,1-14.7,18.9-39.4,16-50.9-4.3-5.3-8.7-10.7-13-16-2.3-8.2-4.7-16.3-7-24.5v-36c2.7-14.5,5.3-29,8-43.4.7-.7,1.3-1.3,2-2,1.7-10.3,3.3-20.6,5-31,.7-.3,1.3-.7,2-1,1.3-9,2.7-18,4-27,10.7-29.5,23.7-67.8,41-93.9,3.8-5.5,7.7-11,11.5-16.5,13.8-5.5,26.2-13.8,41-15,3.3-1.7,6.7-3.3,10-5,27.7-5.6,53.5-19.4,82-23,15.8-8.9,23.8-5.8,22.5-27.5-1.3-6.7-2.7-13.3-4-20-.3-16.8-.7-33.6-1-50.4h211ZM2830.8,876.4c-3.1-.3-3.7,14.2-1,15,5.2,1.5,4.4-14.6,1-15ZM2441.8,895.3c-1.5,1-.3,16.6-7.5,24.5,11.2,28.2,14.2-18.2,13-22-1.8-.8-3.7-1.7-5.5-2.5ZM2440.8,933.3c-2.8,3.2-5.7,6.3-8.5,9.5,1.2,10.2,2.3,20.3,3.5,30.5,3.5,2.4,2.2-5.3,2.5-6.5,1.3-3.3,2.7-6.7,4-10,.6-3.5,2-23.1-1.5-23.5ZM2830.8,944.3c-3.2,1.5-.7,23.3,4,22,2.4-.7,5.8-20.6,0-22h-4Z"/>
        <path d="M2751.3,415.9h200v346.6c-5-62.1-9.1-100.2-35-157.3-6.7-12.7-13.3-25.3-20-38-14.5-6.8-29-13.6-43.5-20.5-18-6.3-36-12.7-54-19-7.6-3.1-20.2-14.9-33-14-30.3-13.3-28.9-15.5-19.5-47.4-.3-17,.9-34,5-50.4Z"/>
        <path d="M2951.3,805.5v412.5h-635v-410.5c2.3,8.2,4.7,16.3,7,24.5,4.3,5.3,8.7,10.7,13,16,2.9,11.6-15,36.2-16,50.9,2.5,14.9,10.1,29.2,3,43.9,4,42.3,8,84.6,12,126.8,7.5,16.5,8.3,34.2,13,50.9,1.7,22,3.3,43.9,5,65.9,5.3,2.8,3.1,29.6,4.5,30.5h548c.8-1.2,1.7-2.3,2.5-3.5,3.8-9.1,5-67,5-82.9,1-2.3,2-4.7,3-7v-17c6-22.1,8.7-43,11-65.9l2-2c.3-26,.7-51.9,1-77.9,2.7-3,5.3-6,8-9-1.7-11.3-3.3-22.6-5-34,8-7.5,4.4-15.9,5-26,7.1-28.7,9.6-57.4,13-86.4Z"/>
        <path d="M2830.8,876.4c3.4.3,4.2,16.5-1,15-2.7-.8-2.1-15.3,1-15Z"/>
        <path d="M2441.8,895.3c1.8.8,3.7,1.7,5.5,2.5,1.2,3.8-1.8,50.2-13,22,7.2-7.9,6-23.5,7.5-24.5Z"/>
        <path d="M2440.8,933.3c3.5.3,2.1,20,1.5,23.5-1.3,3.3-2.7,6.7-4,10-.3,1.2,1,8.9-2.5,6.5-1.2-10.2-2.3-20.3-3.5-30.5,2.8-3.2,5.7-6.3,8.5-9.5Z"/>
        <path d="M2830.8,944.3h4c5.8,1.4,2.4,21.3,0,22-4.7,1.3-7.2-20.5-4-22Z"/>
      </g>
    </mask>
    <mask id="mask-1" x="958.2" y="671.7" width="497" height="675" maskUnits="userSpaceOnUse">
      <g>
        <path d="M1270.6,1346.7h-312.4v-675h497v103.8c-10.4-5.6-15.9,16.8-28.9,28.5-1,2.3-2,4.7-3,7,0,17.4-6.2,33.9-9,50.9-5.4,32.4,9,48.3-50.4,48.4-5.4-1.9,1-28.9-11-27-21.2,21.1-49.7,32.2-74.8,47.9-12.5,11.8-31.5,30.6-49.9,19-4.8-6.2-9.6-12.3-14.5-18.5-10.8-22,.7-43-17.5-42.4-4.8-5.9,5.4-17.3,3.5-27.5,10-13.7,6.6-36.2,8-44.9.7-.3,1.3-.7,2-1,1.7-9,3.3-18,5-27,.7-.3,1.3-.7,2-1,.3-4.3.7-8.7,1-13,2.7-9.3,5.3-18.6,8-28,.7-4.7,1.3-9.3,2-14,1.7-4,3.3-8,5-12,1-7.7,2-15.3,3-23,.2-1.1,6.7-12,5-21-2.2-11.6-3.9,3.4-5,6l-3,3c-9.3,18.3-18.6,36.6-27.9,54.9-9.6,22-19.3,43.9-28.9,65.9-4.3,8-8.6,16-13,24-1,3.7-2,7.3-3,11-2,3-4,6-6,9-.3,2.7-.7,5.3-1,8-1.3,3-2.7,6-4,9-1,3.8,2.1,9.6-2.5,12.5-33.4-4.2-68-13.2-102.8-14-6.1,2-5.1,29.8-6.5,38.4-.7.7-1.3,1.3-2,2-6.4,38.4-12.7,76.6-24,113.8-4,17-8,33.9-12,50.9-1,9.7-2,19.3-3,29-.7.3-1.3.7-2,1-1.7,12.3-3.3,24.6-5,36.9-.7.7-1.3,1.3-2,2-1.7,12-3.3,24-5,35.9-.7.3-1.3.7-2,1-3.7,20-7.3,39.9-11,59.9-10,19.1-15.2,28.6,0,46.9,9.2,11,25.6,14.2,37.4,21.5,10.5,0,21.9,6,25.9,7,6.7,1,13.3,2,20,3,2,1,4,2,6,3,12,1.3,24,2.7,35.9,4l6,3c13,1.3,25.9,2.7,38.9,4,.7.7,1.3,1.3,2,2,14.3,1,28.6,2,42.9,3,27.8,6.1,57.4,7.9,86.3,12Z"/>
        <path class="st5" d="M1455.2,775.5v1c-3.8,5.5-4.6,22.4-7,33.5l-3,6c-3.7,18-7.3,35.9-11,53.9l-2,1c-3.8,18.2-7.4,36.5-7,54.9,8.5,12.1,1.9,41.1,3,58.9-1,4.3-2,8.7-3,13-.3,61.9-.7,123.8-1,185.7-3.3,25.3-6.7,50.6-10,75.9-9.1,23.6-7.7,47.4-27.4,66.4-6.7,5-13.3,10-20,15-16.4,8.1-33.7,3.2-51.4,6h-44.9c-28.9-4-58.5-5.8-86.3-12-14.3-1-28.6-2-42.9-3-.7-.7-1.3-1.3-2-2-13-1.3-25.9-2.7-38.9-4l-6-3c-12-1.3-24-2.7-35.9-4-2-1-4-2-6-3-6.7-1-13.3-2-20-3-4.1-1-15.5-7-25.9-7-11.9-7.3-28.3-10.5-37.4-21.5-15.2-18.3-10-27.9,0-46.9,3.7-20,7.3-39.9,11-59.9.7-.3,1.3-.7,2-1,1.7-12,3.3-24,5-35.9.7-.7,1.3-1.3,2-2,1.7-12.3,3.3-24.6,5-36.9.7-.3,1.3-.7,2-1,1-9.7,2-19.3,3-29,4-17,8-33.9,12-50.9,11.3-37.3,17.6-75.5,24-113.8.7-.7,1.3-1.3,2-2,1.4-8.6.4-36.4,6.5-38.4,34.8.8,69.4,9.8,102.8,14,4.6-2.9,1.5-8.6,2.5-12.5,1.3-3,2.7-6,4-9,.3-2.7.7-5.3,1-8,2-3,4-6,6-9,1-3.7,2-7.3,3-11,4.3-8,8.6-16,13-24,9.6-22,19.3-43.9,28.9-65.9,9.3-18.3,18.6-36.6,27.9-54.9l3-3c1.1-2.6,2.8-17.6,5-6,1.7,9-4.8,19.9-5,21-1,7.7-2,15.3-3,23-1.7,4-3.3,8-5,12-.7,4.7-1.3,9.3-2,14-2.7,9.3-5.3,18.6-8,28-.3,4.3-.7,8.7-1,13-.7.3-1.3.7-2,1-1.7,9-3.3,18-5,27-.7.3-1.3.7-2,1-1.4,8.7,2.1,31.3-8,44.9,1.9,10.1-8.3,21.6-3.5,27.5,18.2-.5,6.7,20.4,17.5,42.4,4.8,6.2,9.6,12.3,14.5,18.5,18.4,11.6,37.4-7.2,49.9-19,25.2-15.7,53.7-26.8,74.8-47.9,12-1.9,5.5,25.1,11,27,59.4-.1,45-16,50.4-48.4,2.8-17,8.9-33.5,9-50.9,1-2.3,2-4.7,3-7,13-11.7,18.6-34.1,28.9-28.5ZM1346.9,898.3c-1,0-13.8,12.7-1,11,8.3-1.1,3.4-11,1-11Z"/>
        <path d="M1455.2,776.5v570.2h-139.7c17.7-2.7,35,2.1,51.4-6,6.7-5,13.3-10,20-15,19.8-19,18.3-42.8,27.4-66.4,3.3-25.3,6.7-50.6,10-75.9.3-61.9.7-123.8,1-185.7,1-4.3,2-8.7,3-13-1.1-17.8,5.5-46.8-3-58.9-.4-18.4,3.2-36.7,7-54.9l2-1c3.7-18,7.3-35.9,11-53.9l3-6c2.4-11,3.1-28,7-33.5Z"/>
        <path d="M1346.9,898.3c2.4,0,7.3,9.9-1,11-12.8,1.7,0-11,1-11Z"/>
      </g>
    </mask>
    <mask id="mask-2" x="2120.1" y="-770.1" width="473" height="632" maskUnits="userSpaceOnUse">
      <g>
        <path d="M2301.1-770.1c-31.9,3.2-64.6-.9-96.5,1-.7.7-1.3,1.3-2,2-9.7.3-19.3.7-29,1-22.9,3.7-9.7,23.4-18.5,36.4-5,7.4-23.6-.9-27,10-1.1,3.4,7.5,8.3-8,17.5v-67.9h181Z"/>
        <path class="st5" d="M2467.1-770.1h37c14.8,1.7,29.7,3.3,44.5,5,4.2,3.2,3.5,27,7.5,33.4,4,6.4,18.4-1.2,28.5,7.5,5.7,4.9-5.7,9,8.5,21v2c-5.5,5.9-11.2.6-18.5,5-3.4,14.5-3.6,29.5-4.5,44.4-5.6,19.4-5.5,41.2-8,61.9-.7.7-1.3,1.3-2,2-1.7,21.3-3.3,42.6-5,63.9-1,2.7-2,5.3-3,8l-3,41.9-2,2c-1.3,17-2.7,33.9-4,50.9-5.6,18.7-5.4,39.9-8,59.9l-2,2c-1.7,17.3-3.3,34.6-5,51.9-.7.3-1.3.7-2,1l-9,86.9c-2.3,6-4.7,12-7,18v31.9c-14,21.4-58.2,20.3-83.5,27.5-16.7.3-33.3.7-50,1-.7.7-1.3,1.3-2,2-25.3-1-50.7-2-76-3-30.5-5.9-69.3-5.7-91.5-29.5-1.3-13-2.7-26-4-38.9-9.5-11.5-5.6-19.9-7-31-1.7-14.3-3.3-28.6-5-42.9-.7-.7-1.3-1.3-2-2-1.7-18.3-3.3-36.6-5-54.9-.7-.3-1.3-.7-2-1-1.3-15.6-2.7-31.3-4-46.9-.7-.7-1.3-1.3-2-2-1.7-18.3-3.3-36.6-5-54.9-.7-.7-1.3-1.3-2-2-1.7-17.3-3.3-34.6-5-51.9-.7-.7-1.3-1.3-2-2-1.7-18.3-3.3-36.6-5-54.9-.7-.7-1.3-1.3-2-2-5-43.3-10-86.5-15-129.8-2.6-10.3-13-2.3-20-7.5v-6c15.5-9.2,6.9-14.1,8-17.5,3.4-10.9,22-2.6,27-10,8.8-13.1-4.4-32.7,18.5-36.4,9.7-.3,19.3-.7,29-1,.7-.7,1.3-1.3,2-2,31.9-1.9,64.6,2.2,96.5-1h166Z"/>
        <path d="M2494.1-770.1h-27,27Z"/>
        <path d="M2504.1-770.1h89v66.9c-14.2-12-2.8-16.1-8.5-21-10.1-8.7-24.5-1.1-28.5-7.5-4-6.4-3.3-30.3-7.5-33.4-14.8-1.7-29.7-3.3-44.5-5Z"/>
        <path d="M2593.1-701.3V-138.1h-473v-558.1c7,5.2,17.4-2.8,20,7.5,5,43.3,10,86.5,15,129.8.7.7,1.3,1.3,2,2,1.7,18.3,3.3,36.6,5,54.9.7.7,1.3,1.3,2,2,1.7,17.3,3.3,34.6,5,51.9.7.7,1.3,1.3,2,2,1.7,18.3,3.3,36.6,5,54.9.7.7,1.3,1.3,2,2,1.3,15.6,2.7,31.3,4,46.9.7.3,1.3.7,2,1,1.7,18.3,3.3,36.6,5,54.9.7.7,1.3,1.3,2,2,1.7,14.3,3.3,28.6,5,42.9,1.4,11.1-2.5,19.4,7,31,1.3,13,2.7,26,4,38.9,22.2,23.8,61,23.6,91.5,29.5,25.3,1,50.7,2,76,3,.7-.7,1.3-1.3,2-2,16.7-.3,33.3-.7,50-1,25.3-7.1,69.5-6,83.5-27.5v-31.9c2.3-6,4.7-12,7-18l9-86.9c.7-.3,1.3-.7,2-1,1.7-17.3,3.3-34.6,5-51.9l2-2c2.6-20,2.4-41.2,8-59.9,1.3-17,2.7-33.9,4-50.9l2-2,3-41.9c1-2.7,2-5.3,3-8,1.7-21.3,3.3-42.6,5-63.9.7-.7,1.3-1.3,2-2,2.5-20.7,2.4-42.5,8-61.9.9-14.9,1.1-29.9,4.5-44.4,7.3-4.4,13,.9,18.5-5Z"/>
      </g>
    </mask>
    <mask id="mask-3" x="6.7" y="565" width="261" height="687" maskUnits="userSpaceOnUse">
      <g>
        <path d="M6.7,572v-7h261v11c-1.5-3.6-1.7-8.8-6.5-10-19,.3-38,.7-57,1-.3.7-.7,1.3-1,2H34.2c-1.7-.7-3.3-1.3-5-2-.7.7-1.3,1.3-2,2-8.8.2-17.5-1.7-20.5,3Z"/>
        <path class="st5" d="M267.7,576v30c-2,14.5-4,29-6,43.4-1.3,21.3-2.7,42.6-4,63.9l-2,2c-5.1,70.3-2.9,141.2-5,211.7-.7.3-1.3.7-2,1-1.3,49.9-2.7,99.9-4,149.8-.7.7-1.3,1.3-2,2v29c.7.7,1.3,1.3,2,2,1,16-11.3,10.5-13,16,.3,37.9.7,75.9,1,113.8-16.8,10.1-50.1,8.3-53.5,9.5l-.5,2h-70c.9-3.9-8.7-1.1-17.5-2-4.3-1-8.7-2-13-3-6.6-1-22,.2-25.5-6.5-.3-35.9-.7-71.9-1-107.8-1.5-8.4-7-7.6-12-13l-3-101.9c-.7-.7-1.3-1.3-2-2-1.7-50.9-3.3-101.9-5-152.8-.7-.7-1.3-1.3-2-2v-38.9c-1.3-25.3-2.7-50.6-4-75.9-.7-.7-1.3-1.3-2-2-1.7-24.3-3.3-48.6-5-72.9-.7-.7-1.3-1.3-2-2-2.3-19.8-1.8-40.4-8-59.4v-37.9c3-4.7,11.7-2.7,20.5-3,.7-.7,1.3-1.3,2-2,1.7.7,3.3,1.3,5,2h169c.3-.7.7-1.3,1-2,19-.3,38-.7,57-1,4.8,1.2,5,6.3,6.5,10Z"/>
        <path d="M267.7,606v646.1h-89l.5-2c3.4-1.2,36.7.6,53.5-9.5-.3-37.9-.7-75.9-1-113.8,1.7-5.5,14,0,13-16-.7-.7-1.3-1.3-2-2v-29c.7-.7,1.3-1.3,2-2,1.3-49.9,2.7-99.9,4-149.8.7-.3,1.3-.7,2-1,2.1-70.5,0-141.3,5-211.7l2-2c1.3-21.3,2.7-42.6,4-63.9,2-14.5,4-29,6-43.4Z"/>
        <path d="M108.7,1252H6.7v-642.1c6.2,19,5.7,39.6,8,59.4.7.7,1.3,1.3,2,2,1.7,24.3,3.3,48.6,5,72.9.7.7,1.3,1.3,2,2,1.3,25.3,2.7,50.6,4,75.9v38.9c.7.7,1.3,1.3,2,2,1.7,50.9,3.3,101.9,5,152.8.7.7,1.3,1.3,2,2l3,101.9c5,5.4,10.5,4.6,12,13,.3,35.9.7,71.9,1,107.8,3.5,6.7,18.9,5.5,25.5,6.5,4.3,1,8.7,2,13,3,8.8.9,18.4-1.9,17.5,2Z"/>
      </g>
    </mask>
  </defs>
  <g id="Lager_1-2">
    <g>
      <g>
        <rect class="st5" x="1517.5" width="386.6" height="223"/>
        <circle cx="1781.6" cy="116.8" r="71.9"/>
        <path class="st1" d="M1636,86.2c0-23.9-19.6-43.5-43.5-43.5s-43.5,19.6-43.5,43.5,19.6,43.5,43.5,43.5,43.5-19.6,43.5-43.5Z"/>
      </g>
      <g>
        <path class="st5" d="M0,210.5V1h75.1c16.1,0,29.6,2.8,40.4,8.4s18.8,13.3,24.2,23.3c5.3,9.9,8,21.3,8,34.2s-2.7,24.3-8.1,34-13.5,17.2-24.3,22.6c-10.8,5.3-24.3,8-40.5,8H18.4v-27.4h53.3c10.3,0,18.6-1.5,25-4.4s11-7.2,14-12.7c3-5.5,4.5-12.2,4.5-20s-1.5-14.7-4.5-20.4-7.7-10.2-14.1-13.3c-6.4-3.1-14.8-4.7-25.2-4.7h-39.4v182.1H0ZM119.1,210.5l-50.8-94.6h35.6l51.6,94.6h-36.4Z"/>
        <path class="st5" d="M248.1,213.8c-15.5,0-28.8-3.3-40.1-10-11.2-6.7-19.9-16-25.9-28.1s-9.1-26.3-9.1-42.6,3-30.3,8.9-42.6,14.4-21.9,25.2-28.8c10.9-6.9,23.6-10.3,38.2-10.3s17.7,1.5,26,4.4c8.3,3,15.8,7.6,22.5,13.9,6.7,6.3,11.9,14.4,15.8,24.4,3.9,10,5.8,22.1,5.8,36.3v11h-125.3v-23.1h109.4l-14.5,7.6c0-9.7-1.5-18.2-4.5-25.5s-7.4-13.1-13.3-17.2c-5.9-4.1-13.2-6.2-22-6.2s-16.2,2.1-22.4,6.3-10.9,9.8-14.1,16.7-4.9,14.4-4.9,22.6v15.7c0,10.8,1.9,19.9,5.6,27.4,3.7,7.4,8.9,13.1,15.5,16.9,6.7,3.8,14.4,5.7,23.2,5.7s11.1-.8,15.8-2.5,8.7-4.1,12.2-7.4,6-7.4,7.8-12.3l29.1,6.9c-2.5,8.1-6.8,15.2-12.7,21.4-6,6.2-13.4,11-22.2,14.4s-18.9,5.1-30.2,5.1h0Z"/>
        <path class="st5" d="M389,210.5l-59.3-157.2h33.5l31.1,89.3c3.5,9.8,6.4,19.7,8.9,29.6,2.4,9.9,5,19.7,7.7,29.5h-9.3c2.6-9.8,5.1-19.6,7.6-29.5,2.4-9.9,5.3-19.8,8.7-29.6l31.1-89.3h33.2l-59.3,157.2h-33.8Z"/>
        <path class="st5" d="M569.7,272.7c-12.1,0-22.6-1.5-31.5-4.6-8.9-3.1-16.2-7.2-22-12.4-5.8-5.2-10.1-10.9-13.1-17.2l25.9-12.2c1.9,3,4.4,6.2,7.5,9.5s7.4,6.2,12.7,8.5c5.3,2.3,12.2,3.5,20.5,3.5,12,0,21.7-2.8,29.2-8.5s11.2-14.6,11.2-26.6v-30.7h-2.7c-1.9,3.5-4.5,7.2-7.8,11.2-3.3,4-8,7.5-13.9,10.5-6,2.9-13.7,4.4-23.3,4.4s-23.5-2.9-33.4-8.7c-9.9-5.8-17.7-14.4-23.5-25.9s-8.7-25.5-8.7-42.2,2.9-31,8.6-43,13.6-21.1,23.6-27.5c10-6.4,21.3-9.6,33.8-9.6s17.5,1.6,23.5,4.8c6,3.2,10.8,7,14.2,11.3,3.4,4.4,6,8.2,7.8,11.5h2.2v-25.6h30.2v159.5c0,13.8-3.1,25.1-9.3,34-6.2,8.9-14.7,15.4-25.5,19.6-10.7,4.2-22.8,6.3-36.3,6.3h0ZM569.5,182.4c8.8,0,16.2-2,22.3-6.1s10.6-10,13.7-17.7,4.6-16.9,4.6-27.6-1.5-19.9-4.6-27.8c-3.1-8-7.7-14.2-13.7-18.7s-13.5-6.8-22.3-6.8-16.7,2.4-22.8,7.1c-6.1,4.7-10.7,11.1-13.8,19.1s-4.6,17-4.6,27.1,1.5,19.2,4.6,26.9,7.7,13.8,13.8,18.1c6.1,4.3,13.7,6.5,22.7,6.5h0Z"/>
        <path class="st5" d="M682.5,210.5V53.3h30v25.3h1.7c2.9-8.6,8-15.4,15.2-20.2,7.2-4.9,15.4-7.3,24.6-7.3s4.2,0,6.8.2,4.6.3,6.3.6v29.5c-1.1-.4-3.3-.8-6.5-1.1-3.2-.4-6.4-.6-9.7-.6-7.1,0-13.5,1.5-19.3,4.5-5.7,3-10.2,7.2-13.4,12.4-3.2,5.3-4.8,11.4-4.8,18.3v95.5h-30.9Z"/>
        <path class="st5" d="M796.2,267.1l7.6-25.2,3.5.8c5.3,1.4,10.2,1.8,14.4,1.1,4.3-.7,8-2.6,11.1-6s5.7-8.4,7.5-15.1l3.4-11.5-59.8-157.9h33.5l31.1,89.3c3.5,9.9,6.3,19.8,8.7,29.7,2.3,9.8,4.8,19.6,7.5,29.4h-9.6c2.7-9.8,5.3-19.6,7.8-29.5,2.5-9.9,5.5-19.8,8.9-29.6l31.6-89.3h33.2l-68.3,179c-3.2,8.4-7.1,15.5-11.7,21.1s-10.2,9.9-16.5,12.7c-6.4,2.9-13.8,4.3-22.2,4.3s-9.2-.4-13.1-1c-3.8-.7-6.7-1.5-8.6-2.3h0Z"/>
        <path class="st5" d="M1035.7,53.3v25.2h-85.2v-25.2s85.2,0,85.2,0ZM973.4,15.9h30.9v152.2c0,6.3,1.3,10.9,4,13.9s7,4.4,13.2,4.4,3.7-.2,6.3-.6c2.6-.4,4.9-.8,6.8-1.1l5.5,24.8c-3.3,1.1-6.8,1.9-10.6,2.5-3.8.5-7.5.8-11.1.8-14.2,0-25.3-3.7-33.2-11s-11.8-17.7-11.8-31V15.9h0Z"/>
        <path class="st5" d="M1131.5,213.8c-15.5,0-28.8-3.3-40.1-10-11.2-6.7-19.9-16-25.9-28.1s-9.1-26.3-9.1-42.6,3-30.3,8.9-42.6c5.9-12.3,14.4-21.9,25.2-28.8s23.6-10.3,38.2-10.3,17.7,1.5,26,4.4c8.3,3,15.8,7.6,22.5,13.9,6.7,6.3,11.9,14.4,15.8,24.4,3.9,10,5.8,22.1,5.8,36.3v11h-125.3v-23.1h109.4l-14.5,7.6c0-9.7-1.5-18.2-4.5-25.5s-7.4-13.1-13.3-17.2c-5.9-4.1-13.2-6.2-22-6.2s-16.2,2.1-22.4,6.3-10.9,9.8-14.1,16.7-4.8,14.4-4.8,22.6v15.7c0,10.8,1.8,19.9,5.6,27.4,3.7,7.4,8.9,13.1,15.5,16.9s14.4,5.7,23.2,5.7,11.1-.8,15.8-2.5,8.7-4.1,12.2-7.4,6-7.4,7.8-12.3l29.1,6.9c-2.5,8.1-6.8,15.2-12.7,21.4s-13.4,11-22.2,14.4-18.9,5.1-30.2,5.1h0Z"/>
        <path class="st5" d="M1300.1,53.3v25.2h-85.2v-25.2s85.2,0,85.2,0ZM1237.8,15.9h30.9v152.2c0,6.3,1.3,10.9,4,13.9s7.1,4.4,13.2,4.4,3.7-.2,6.3-.6c2.6-.4,4.9-.8,6.8-1.1l5.5,24.8c-3.3,1.1-6.8,1.9-10.6,2.5-3.8.5-7.4.8-11.1.8-14.2,0-25.3-3.7-33.2-11-7.9-7.4-11.8-17.7-11.8-31V15.9h0Z"/>
      </g>
    </g>
  </g>
  <g>
    <image width="1200" height="800" transform="translate(2102.3 416.4)" xlink:href="Resurs 1-1.png"/>
    <g class="st0">
      <g id="Lager_1-21" data-name="Lager_1-2">
        <g>
          <g>
            <path class="st7" d="M2795.7,715.8c.4-5.8.7-11.6,1-17.4h0c8,.8,15.9,1.6,23.9,2.5-.7,5.8-1.7,11.5-2.7,17.2-7.4-.8-14.8-1.5-22.2-2.3h0Z"/>
            <path class="st5" d="M2812.9,703.6c.3,0,.7.2,1,.3,2,1.3,3,3.3,2.7,5.8h0c-.4,2.4-1.8,4.2-4,5.1h-.9c-.3,0-.6-.1-.9-.2-2-1.3-3-3.4-2.7-5.8h0c.3-2.4,1.6-4.3,3.9-5.1.3,0,.7,0,1,0Z"/>
            <path class="st6" d="M2803.8,705.9c.1-1.5-.5-2.8-1.8-3.5l-.6-.2c-.2,0-.4,0-.6,0-1.4.5-2.2,1.6-2.3,3.1h0c-.1,1.5.5,2.8,1.8,3.5l.6.2h.6c1.4-.5,2.2-1.6,2.3-3.1h0Z"/>
          </g>
          <g>
            <path d="M2685.1,708.7c0-5.4-.1-10.9-.2-16.3h0c2,0,4,0,6,0,1.1,0,2.2.2,3.2.7h0c.8.4,1.5,1.1,1.9,1.8h0c.4.8.7,1.7.7,2.7h0c0,.9-.2,1.8-.6,2.6h0c-.4.8-1.1,1.4-1.9,1.7h0c-1,.4-2.1.6-3.2.6-1.5,0-3,0-4.5,0h0c0-.7,0-1.4,0-2.1h0c1.4,0,2.8,0,4.2,0,.7,0,1.3,0,2-.3h0c.5-.2.8-.5,1.1-1h0c.2-.5.4-1,.3-1.5h0c0-.6-.1-1.1-.4-1.6h0c-.3-.5-.7-.8-1.1-1.1h0c-.6-.3-1.3-.4-2-.4-1,0-2.1,0-3.1,0h0c0,4.7.1,9.5.2,14.2-.8,0-1.7,0-2.5,0h0ZM2694.6,708.8c-1.4-2.5-2.7-5-4.1-7.4h0c.9,0,1.9,0,2.8,0,1.4,2.5,2.8,5,4.2,7.4-1,0-1.9,0-2.9,0h0Z"/>
            <path d="M2704.8,709.3c-1.1,0-2.2-.3-3.2-.9h0c-.9-.5-1.6-1.3-2.1-2.2h0c-.5-1-.8-2.2-.8-3.3h0c0-1.1.2-2.3.7-3.3h0c.4-.9,1.1-1.7,2-2.2h0c.9-.5,1.9-.8,3-.7.7,0,1.4.2,2,.4h0c.7.3,1.3.6,1.8,1.1h0c.6.5,1,1.2,1.3,1.9h0c.3.9.5,1.9.5,2.8h0c0,.3,0,.6,0,.9-3.3,0-6.6-.2-9.9-.2h0c0-.6,0-1.2,0-1.8h0c2.9,0,5.7.1,8.6.2-.4.2-.8.4-1.1.6h0c0-.7-.1-1.4-.4-2h0c-.2-.5-.6-1-1.1-1.4h0c-.5-.3-1.1-.5-1.7-.5-.6,0-1.2.1-1.8.5h0c-.5.3-.9.8-1.1,1.3h0c-.2.6-.4,1.1-.4,1.8h0c0,.4,0,.8,0,1.2h0c0,.7.2,1.5.5,2.1h0c.3.6.7,1,1.2,1.3h0c.6.3,1.2.5,1.8.5.4,0,.8,0,1.2-.2h0c.4-.1.7-.3,1-.6h0c.3-.3.5-.6.6-.9h0c.8.2,1.5.4,2.3.6-.2.6-.5,1.2-1,1.6h0c-.5.5-1.1.9-1.7,1.1h0c-.8.3-1.6.4-2.4.3h0s0,0,0,0h0Z"/>
            <path d="M2715.8,709.3c-1.6-4.2-3.2-8.3-4.8-12.4h0c.9,0,1.8,0,2.6,0,.8,2.3,1.7,4.7,2.5,7h0c.3.8.5,1.5.7,2.3h0c.2.8.4,1.6.6,2.3-.2,0-.5,0-.7,0h0c.2-.8.4-1.5.6-2.3h0c.2-.8.4-1.5.7-2.3h0c.8-2.3,1.5-4.6,2.3-6.9h0c.9,0,1.7,0,2.6.1-1.5,4-2.9,8.1-4.4,12.1-.9,0-1.7,0-2.6,0,0,0,0,0,0,0h0Z"/>
            <path d="M2729.7,714.8l-.3.2h-.3c-.6-.1-1.2-.3-1.8-.7h0c-.6-.2-1.2-.6-1.7-1.1h0c-.4-.4-.8-.9-1-1.4h0c.7-.3,1.3-.6,2-.9h0c.2.3.4.5.6.8h0c.3.3.6.5,1,.7h0c.5.2,1,.3,1.6.3.8,0,1.6-.1,2.2-.6h0c.6-.5.9-1.2.8-2h0c0-.8,0-1.6,0-2.4,0,0-.1,0-.2,0h0c-.2.3-.4.6-.6.9h0c-.3.3-.6.6-1,.8h0c-.6.2-1.2.3-1.8.3-.9,0-1.8-.3-2.5-.8h0c-.8-.5-1.4-1.3-1.8-2.1h0c-.5-1-.7-2.2-.7-3.3h0c0-1.1.2-2.3.6-3.3h0c.4-.8,1-1.6,1.8-2.1h0c.8-.5,1.7-.7,2.6-.6.6,0,1.2.2,1.8.5h0c.4.2.8.6,1.1.9h0c.2.3.4.6.6.9h0c0,0,.1,0,.2,0,0-.7,0-1.3,0-2h0c.8,0,1.5,0,2.3.1,0,4.2.1,8.3.1,12.5h0c0,.9-.2,1.8-.7,2.6h0c-.5.7-1.1,1.2-1.9,1.4-.8,0-1.6,0-2.4.1l-.3.2h0s0,0,0,0h0s0,0,0,0h0,0ZM2729.7,707.7c.6,0,1.2,0,1.7-.4h0c.5-.3.8-.8,1-1.3h0c.2-.7.4-1.4.3-2.1h0c0-.7-.1-1.5-.4-2.2h0c-.2-.6-.6-1.1-1-1.5h0c-.5-.4-1.1-.6-1.7-.6-.6,0-1.2.1-1.7.5h0c-.5.4-.8.9-1,1.4h0c-.2.7-.3,1.4-.3,2.1h0c0,.7.1,1.4.4,2.1h0c.2.6.6,1.1,1.1,1.5h0c.5.4,1.1.6,1.7.6h0,0s0,0,0,0h0s0,0,0,0h0Z"/>
            <path d="M2738.2,710.3c0-4.1,0-8.2-.2-12.3h0c.7,0,1.5,0,2.2.1,0,.7,0,1.3,0,2h0s0,0,.1,0c.2-.6.6-1.1,1.1-1.5h0c.5-.3,1.2-.5,1.8-.5.2,0,.3,0,.5,0,.2,0,.3,0,.5,0,0,.8,0,1.5,0,2.3h0c-.2,0-.3,0-.5-.1-.2,0-.5,0-.7,0-.5,0-1,0-1.4.3h0c-.4.2-.8.5-1,.9h0c-.2.4-.4.9-.3,1.4h0c0,2.5,0,5,0,7.5-.8,0-1.5,0-2.3-.1h0Z"/>
            <path d="M2746.6,715.3c.2-.6.4-1.3.6-1.9h0c0,0,.2,0,.3,0h0c.3.1.7.2,1.1.2.3,0,.6-.2.8-.4h0c.3-.3.5-.7.5-1.2h0c0-.3.2-.6.2-.9h0c-1.5-4.2-2.9-8.4-4.5-12.6h0c.8,0,1.6.1,2.4.2.8,2.4,1.6,4.7,2.4,7.1h0c.3.8.5,1.6.6,2.4h0c.2.8.4,1.6.6,2.3-.2,0-.5,0-.7,0h0c.2-.8.4-1.5.6-2.3h0c.2-.8.4-1.5.6-2.3h0c.8-2.3,1.5-4.5,2.2-6.8h0c.8,0,1.6.1,2.4.2-1.6,4.6-3.2,9.1-4.9,13.7h0c-.2.6-.5,1.1-.9,1.6h0c-.3.4-.7.7-1.2.9h0c-.5.2-1.1.3-1.6.2-.3,0-.6,0-1-.1-.2,0-.4,0-.6-.2h0q0,0,0,0h0,0s0,0,0,0h0s0,0,0,0h0Z"/>
            <path d="M2763.9,699.7c0,.7,0,1.3,0,2-2-.1-4.1-.3-6.1-.4h0c0-.7,0-1.3,0-2h0c2,.1,4.1.3,6.1.4ZM2759.4,696.5c.7,0,1.5.1,2.2.2,0,4,0,7.9,0,11.9h0c0,.4,0,.8.3,1.1h0c.2.3.6.4.9.4.1,0,.3,0,.4,0,.2,0,.3,0,.5,0,.1.7.3,1.3.4,2h0c-.2,0-.5.1-.7.1-.3,0-.5,0-.8,0-.9,0-1.7-.4-2.3-1h0c-.6-.7-.9-1.6-.9-2.5h0c0-4,0-8,0-12.1h0s0,0,0,0h0s0,0,0,0h0Z"/>
            <path d="M2770.6,712.8c-1,0-2-.4-2.8-1h0c-.8-.6-1.4-1.4-1.8-2.3h0c-.4-1.1-.6-2.2-.6-3.4h0c0-1.1.2-2.2.6-3.3h0c.4-.9,1-1.6,1.8-2.1h0c.8-.5,1.7-.7,2.7-.6.6,0,1.2.2,1.8.5h0c.6.3,1.1.7,1.5,1.2h0c.5.6.8,1.3,1.1,2h0c.3.9.4,1.9.4,2.9h0c0,.3,0,.6,0,.9-2.9-.2-5.8-.5-8.7-.7h0c0-.6,0-1.2,0-1.8h0c2.5.2,5.1.4,7.6.6-.3.2-.7.3-1,.5h0c0-.7,0-1.4-.3-2h0c-.2-.5-.5-1-.9-1.4h0c-.4-.4-1-.6-1.5-.6-.6,0-1.1,0-1.6.4h0c-.4.3-.8.7-1,1.2h0c-.2.5-.4,1.1-.3,1.7h0c0,.4,0,.8,0,1.2h0c0,.7.1,1.5.4,2.2h0c.2.6.6,1,1.1,1.4h0c.5.3,1,.5,1.6.6.4,0,.7,0,1.1-.1h0c.3-.1.6-.3.8-.5h0c.2-.3.4-.6.5-.9h0c.7.2,1.3.5,2,.7h0c-.2.6-.5,1.1-.9,1.6h0c-.4.5-.9.8-1.5,1h0c-.7.2-1.4.3-2.1.2h0s0,0,0,0h0Z"/>
            <path d="M2782.2,701.2c0,.7,0,1.3,0,2-1.9-.2-3.9-.3-5.8-.5h0c0-.7,0-1.3,0-2h0c1.9.2,3.9.3,5.8.5ZM2777.9,697.9c.7,0,1.4.1,2.1.2,0,4,0,7.9-.1,11.9h0c0,.4,0,.8.3,1.1h0c.2.3.5.4.9.4.1,0,.3,0,.4,0,.2,0,.3,0,.5,0,.1.7.2,1.3.3,2h0c-.2,0-.5.1-.7.1-.2,0-.5,0-.7,0-.9,0-1.6-.4-2.2-1.1h0c-.5-.7-.8-1.6-.8-2.5h0c0-4,.1-8,0-12.1h0s0,0,0,0h0s0,0,0,0h0Z"/>
          </g>
        </g>
      </g>
    </g>
  </g>
  <g>
    <image width="1200" height="800" transform="translate(767.7 641.7)" xlink:href="Resurs 1-2.png"/>
    <g class="st4">
      <g id="Lager_1-22" data-name="Lager_1-2">
        <g>
          <g>
            <path class="st7" d="M1257.9,1082.1c1.7-10.1,3.2-20.1,4.8-30.2h0c17,2.4,34,4.7,51.1,7.1-1.7,10.1-3.3,20.2-5,30.3-16.9-2.4-33.9-4.7-50.9-7.1h0Z"/>
            <path class="st5" d="M1296.6,1062.8c5.4.9,8.6,5.8,7.9,11.1h0c-1,5.3-5.7,9-11.1,8.5-5.3-.9-8.7-5.8-7.9-11.1h0c1-5.3,5.7-9,11.1-8.4Z"/>
            <path class="st6" d="M1276.4,1065.7c.4-3.3-1.5-6-4.8-6.7-3.3-.2-5.9,1.8-6.6,5.1h0c-.3,3.3,1.5,6,4.8,6.7,3.3.2,5.9-1.9,6.7-5.1h0Z"/>
          </g>
          <g>
            <path d="M1062.5,1052.8c1.2-9.4,2.5-18.7,3.7-28.1h0c3.2.4,6.3.9,9.5,1.3,1.8.2,3.5.8,5,1.8h0c1.2.9,2.1,2.1,2.7,3.6h0c.5,1.5.7,3.1.4,4.7h0c-.2,1.6-.7,3.1-1.6,4.4h0c-.9,1.2-2.1,2.1-3.5,2.6h0c-1.7.5-3.5.7-5.3.4-2.4-.3-4.8-.7-7.2-1h0c.2-1.2.3-2.5.5-3.7h0c2.2.3,4.5.6,6.7,1,1.1.2,2.2.1,3.2-.1h0c.8-.3,1.5-.8,2-1.5h0c.5-.8.8-1.7.9-2.6h0c.1-.9,0-1.9-.2-2.8h0c-.3-.8-.8-1.5-1.5-2h0c-.9-.6-2-1-3.1-1.1-1.7-.2-3.3-.5-5-.7h0c-1.1,8.1-2.1,16.3-3.2,24.4-1.4-.2-2.7-.4-4.1-.6h0ZM1077.7,1055c-1.6-4.5-3.2-9.1-4.8-13.6h0c1.5.2,3,.4,4.5.6,1.6,4.5,3.2,9.1,4.9,13.6-1.5-.2-3.1-.4-4.6-.7h0Z"/>
            <path d="M1094,1057.7c-1.8-.2-3.5-.9-4.9-2.1h0c-1.3-1.1-2.3-2.6-2.8-4.2h0c-.6-1.9-.7-3.9-.4-5.9h0c.3-2,.9-3.9,1.9-5.6h0c.9-1.5,2.2-2.6,3.7-3.4h0c1.6-.7,3.3-1,5.1-.7,1.1.2,2.2.5,3.3,1.1h0c1,.6,1.9,1.3,2.6,2.3h0c.8,1.1,1.3,2.3,1.6,3.6h0c.3,1.6.3,3.3,0,5h0c0,.5-.1,1-.2,1.5-5.3-.7-10.7-1.5-16-2.3h0c.1-1,.3-2.1.4-3.1h0c4.7.7,9.3,1.3,14,2-.7.3-1.3.5-2,.8h0c.2-1.2.1-2.4-.1-3.5h0c-.2-1-.7-1.8-1.4-2.6h0c-.8-.7-1.7-1.1-2.7-1.2-1-.2-2,0-3,.5h0c-.9.5-1.6,1.2-2.1,2h0c-.6.9-.9,1.9-1.1,2.9h0c-.1.7-.2,1.4-.3,2.1h0c-.2,1.3-.2,2.6.2,3.8h0c.3,1,.9,1.9,1.7,2.5h0c.8.6,1.8,1.1,2.9,1.2.7.1,1.4,0,2.1,0,.6-.1,1.2-.4,1.7-.8h0c.5-.4.9-.9,1.2-1.5h0c1.2.5,2.4,1,3.6,1.5h0c-.5,1-1.2,1.9-2,2.6h0c-.9.7-2,1.3-3.1,1.5-1.3.3-2.6.3-3.9.1h0s0,0,0,0h0Z"/>
            <path d="M1112.1,1059.9c-1.6-7.4-3.2-14.8-4.8-22.2h0c1.4.2,2.9.4,4.3.6.8,4.2,1.5,8.4,2.3,12.6h0c.3,1.4.5,2.8.6,4.1h0c.1,1.4.3,2.7.5,4.1-.4,0-.8-.1-1.2-.2h0c.5-1.3,1-2.5,1.5-3.8h0c.5-1.3,1-2.6,1.6-3.8h0c1.8-3.8,3.7-7.6,5.6-11.5h0c1.4.2,2.8.4,4.3.6-3.5,6.7-7,13.4-10.5,20.1-1.4-.2-2.9-.4-4.3-.6,0,0,0,0,0,0h0Z"/>
            <path d="M1134.2,1071.5l-.6.3h-.6c-1-.3-2-.8-2.8-1.5h0c-1-.5-1.9-1.2-2.6-2.1h0c-.6-.8-1.1-1.6-1.4-2.6h0c1.2-.4,2.3-.8,3.5-1.2h0c.2.5.5,1,.8,1.4h0c.4.6.9,1,1.5,1.4h0c.8.5,1.7.7,2.6.9,1.4.2,2.7,0,3.9-.6h0c1.1-.8,1.8-2,1.9-3.4h0c.2-1.4.4-2.8.6-4.1-.1,0-.2,0-.3,0h0c-.4.5-.8,1-1.2,1.4h0c-.6.5-1.3.9-2,1.2h0c-1,.3-2.1.4-3.1.2-1.5-.2-3-.8-4.2-1.8h0c-1.2-1-2.1-2.4-2.5-3.9h0c-.5-1.9-.7-3.9-.3-5.8h0c.2-2,.9-3.9,1.9-5.6h0c.9-1.4,2.1-2.5,3.6-3.3h0c1.4-.7,3-.9,4.6-.7,1.1.1,2.1.5,3,1.1h0c.7.5,1.2,1.1,1.6,1.8h0c.3.5.6,1.1.8,1.7h0c0,0,.2,0,.3,0,.2-1.1.3-2.3.5-3.4h0c1.3.2,2.6.4,3.9.5-1.1,7.2-2.1,14.3-3.1,21.5h0c-.2,1.6-.8,3.2-1.8,4.4h0c-1,1.1-2.2,1.8-3.7,2.2-1.4-.2-2.8-.2-4.2-.2l-.6.4h0s0,0,0,0h0ZM1135.8,1059.4c1,.2,2.1,0,3-.4h0c.9-.5,1.6-1.2,2.1-2.1h0c.6-1.1,1-2.4,1.1-3.6h0c.2-1.3.2-2.6,0-3.8h0c-.2-1-.7-2-1.4-2.8h0c-.8-.7-1.7-1.2-2.8-1.3-1.1-.2-2.1,0-3.1.5h0c-.9.6-1.6,1.4-2.1,2.3h0c-.6,1.1-1,2.3-1.1,3.6h0c-.2,1.2-.2,2.5,0,3.7h0c.2,1,.7,1.9,1.4,2.7h0c.8.7,1.8,1.2,2.8,1.3h0s0,0,0,0h0s0,0,0,0h0s0,0,0,0h0Z"/>
            <path d="M1149.9,1065.2c1-7.1,2-14.1,3-21.2h0c1.3.2,2.6.4,3.9.6-.2,1.1-.3,2.3-.5,3.4h0c0,0,.1,0,.2,0,.5-1.1,1.4-1.9,2.4-2.4h0c1-.5,2.2-.7,3.4-.5.3,0,.6,0,.9.2.3,0,.5.1.8.2h0c-.2,1.3-.4,2.7-.6,4h0c-.3-.1-.5-.2-.8-.3-.4-.1-.8-.2-1.3-.3-.9-.1-1.8,0-2.6.3h0c-.8.3-1.5.8-2,1.4h0c-.5.7-.9,1.5-1,2.4h0c-.6,4.3-1.2,8.6-1.9,12.9-1.3-.2-2.6-.4-4-.6h0Z"/>
            <path d="M1163.4,1074.9c.5-1.1,1-2.2,1.5-3.3h0c.1,0,.3.1.4.2h0c.6.3,1.2.4,1.8.4.6,0,1.1-.2,1.6-.6h0c.6-.5,1-1.2,1.3-1.9h0c.2-.5.5-1,.7-1.5h0c-1.5-7.5-3-14.9-4.5-22.4h0c1.5.2,2.9.4,4.4.6.7,4.2,1.5,8.4,2.2,12.6h0c.2,1.4.4,2.8.5,4.2h0c0,1.4.2,2.7.4,4.1-.4,0-.8-.1-1.2-.2h0c.6-1.3,1.1-2.5,1.6-3.8h0c.5-1.3,1.1-2.6,1.8-3.8h0c2-3.8,3.9-7.7,5.9-11.5h0c1.4.2,2.9.4,4.3.6-4.3,7.6-8.4,15.3-12.6,22.9h0c-.5,1-1.2,1.9-2,2.6h0c-.7.6-1.5,1.1-2.4,1.4-1,.3-2,.3-3,.2-.6,0-1.1-.2-1.7-.4h0c-.3,0-.7-.2-1-.4h0q0,0,0,0s0,0,0,0h0Z"/>
            <path d="M1199,1050.4c-.2,1.1-.3,2.3-.5,3.4-3.7-.5-7.4-1-11.1-1.5h0c.2-1.1.3-2.3.5-3.4h0c3.7.5,7.4,1,11.1,1.5ZM1191.7,1044.3c1.3.2,2.7.4,4,.5-1.1,6.8-2,13.7-3.2,20.5h0c-.2.7,0,1.3.2,1.9h0c.4.5.9.8,1.6.8.3,0,.5,0,.8,0,.3,0,.6,0,.9,0,0,1.1.1,2.3.2,3.4-.5,0-.9.1-1.4.1-.5,0-1,0-1.4,0-1.6-.2-3-.9-4-2.1h0c-.9-1.3-1.2-2.8-.9-4.4h0c1.1-6.9,2.1-13.9,3.2-20.9h0s0,0,0,0h0s0,0,0,0h0Z"/>
            <path d="M1207.9,1073.8c-1.8-.2-3.6-.9-5-2.1h0c-1.3-1.1-2.3-2.6-2.8-4.3h0c-.5-1.9-.6-3.9-.2-5.9h0c.3-2,1-3.9,2.1-5.6h0c1-1.5,2.3-2.7,3.9-3.4h0c1.6-.7,3.4-1,5.2-.7,1.1.2,2.3.5,3.3,1.1h0c1,.6,1.9,1.3,2.6,2.3h0c.8,1.1,1.3,2.3,1.5,3.6h0c.3,1.7.3,3.4,0,5h0c0,.5-.2,1-.2,1.5-5.4-.8-10.9-1.5-16.3-2.3h0c.2-1,.3-2.1.5-3.1h0c4.7.6,9.5,1.3,14.2,2-.7.3-1.4.5-2.1.8h0c.2-1.2.2-2.4,0-3.5h0c-.2-1-.7-1.9-1.4-2.6h0c-.8-.7-1.7-1.1-2.7-1.2-1-.2-2.1,0-3,.4h0c-.9.5-1.7,1.1-2.2,2h0c-.6.9-1,1.9-1.1,3h0c-.1.7-.2,1.4-.3,2.1h0c-.2,1.3-.2,2.6.1,3.8h0c.3,1,.9,1.9,1.7,2.6h0c.8.7,1.8,1.1,2.9,1.2.7.1,1.4,0,2.1,0,.6-.1,1.2-.4,1.7-.8h0c.5-.4,1-.9,1.3-1.5h0c1.2.5,2.4,1,3.6,1.5h0c-.5,1-1.2,1.9-2.1,2.7h0c-.9.7-2,1.3-3.2,1.5-1.3.3-2.7.4-4,.2h0s0,0,0,0h0Z"/>
            <path d="M1233.3,1055.2c-.2,1.1-.4,2.3-.5,3.4-3.7-.5-7.4-1-11.1-1.5h0c.2-1.1.4-2.3.5-3.4h0c3.7.5,7.4,1,11,1.5ZM1226,1049c1.3.2,2.7.4,4,.5-1.1,6.9-2.2,13.7-3.3,20.5h0c-.2.7,0,1.3.2,1.9h0c.4.5,1,.8,1.6.8.3,0,.6,0,.8,0,.3,0,.6,0,.9,0,0,1.1.1,2.3.2,3.4-.5,0-1,.1-1.4.1-.5,0-1,0-1.5-.1-1.6-.2-3-.9-4.1-2.1h0c-.9-1.3-1.2-2.8-.8-4.4h0c1.2-7,2.3-13.9,3.4-20.9h0,0Z"/>
          </g>
        </g>
      </g>
    </g>
  </g>
  <g>
    <image width="1200" height="800" transform="translate(1743.1 -900.6)" xlink:href="Resurs 1-3.png"/>
    <g class="st2">
      <g id="Lager_1-23" data-name="Lager_1-2">
        <g>
          <g>
            <path class="st7" d="M2440.2-426.3c.1-12,.2-24,.2-36h0c18.8-.6,37.8-1.4,56.5-3.2-.2,11.8,0,23.7-.4,35.5-18.7,1.8-37.5,2.9-56.3,3.7h0Z"/>
            <path class="st5" d="M2480-457.2c.8,0,1.5,0,2.3.1,4.9,1.2,7.6,5.7,7.6,10.6h0c-.2,6-4,11.5-10.2,12.3-6,.2-10.4-5.1-10.3-10.9h0c.2-6.1,4.4-11.5,10.6-12.2Z"/>
            <path class="st6" d="M2458.5-449.2c0-3.8-2.8-6.6-6.5-6.7-3.8.4-6.5,3.6-6.7,7.3h0c0,3.7,2.8,6.6,6.5,6.7,3.8-.4,6.5-3.5,6.7-7.3h0Z"/>
          </g>
          <g>
            <path d="M2207.8-433.6c-.2-11.2-.5-22.5-.7-33.7h0c2.8.4,5.7.9,8.5,1.3,1.8.2,3.5.9,5,2h0c1.4,1.1,2.4,2.5,3,4.1h0c.6,1.8,1,3.7,1,5.6h0c0,1.8-.2,3.6-.9,5.3h0c-.6,1.4-1.6,2.5-3,3.2h0c-1.5.7-3.2.9-4.9.6-2.2-.3-4.4-.7-6.5-1h0c0-1.5,0-3-.1-4.4h0c2,.3,4.1.7,6.1,1,1,.2,2,.1,2.9-.3h0c.8-.4,1.3-1,1.7-1.8h0c.4-1,.5-2.1.5-3.1h0c0-1.1-.2-2.3-.6-3.4h0c-.4-.9-1-1.7-1.7-2.4h0c-.9-.6-1.9-1-3-1.2-1.5-.2-3-.4-4.5-.7h0c0,9.8.4,19.5.6,29.3-1.2-.2-2.4-.4-3.6-.6h0ZM2221.5-431.5c-2-5.4-4.2-10.8-6.4-16.2h0c1.4.2,2.8.4,4.2.6,2.4,5.3,4.6,10.7,6.7,16.1-1.5-.2-3-.3-4.6-.6h0Z"/>
            <path d="M2238.4-429.2c-2-.2-3.8-.9-5.4-2.1h0c-1.6-1.3-2.8-3-3.5-4.9h0c-.8-2.2-1.3-4.6-1.3-7h0c-.1-2.3.2-4.6,1-6.7h0c.6-1.7,1.8-3.2,3.3-4.3h0c1.6-1,3.4-1.4,5.2-1.2,1.3.1,2.5.5,3.6,1h0c1.2.6,2.3,1.5,3.2,2.5h0c1.1,1.2,1.9,2.6,2.4,4.1h0c.6,1.9.9,3.9.9,5.9h0c0,.6,0,1.2,0,1.8-5.8-.4-11.5-1-17.3-1.6h0c0-1.2,0-2.5,0-3.7h0c5,.5,10,1,15,1.4-.7.4-1.4.7-2,1.1h0c0-1.4-.2-2.8-.7-4.2h0c-.4-1.1-1-2.1-1.9-2.9h0c-.9-.7-1.9-1.2-3.1-1.3-1.1-.1-2.2.1-3.1.7h0c-.8.6-1.5,1.5-1.8,2.5h0c-.4,1.1-.6,2.3-.6,3.6h0c0,.8,0,1.7,0,2.5h0c0,1.5.2,3.1.8,4.5h0c.4,1.2,1.2,2.2,2.1,2.9h0c.9.7,2,1.1,3.1,1.2.7,0,1.4,0,2.1-.2h0c.7-.2,1.2-.6,1.7-1.1h0c.5-.5.9-1.2,1.1-1.9h0c1.4.5,2.8,1,4.2,1.4h0c-.3,1.2-1,2.4-1.8,3.3h0c-.9.9-2,1.7-3.2,2.1h0c-1.4.5-2.8.6-4.2.5h0s0,0,0,0h0Z"/>
            <path d="M2258.9-428.2c-3-8.7-6-17.3-9.1-26h0c1.7.1,3.3.2,5,.3,1.6,4.9,3.2,9.8,4.8,14.7h0c.5,1.6,1,3.2,1.4,4.9h0c.4,1.6.8,3.2,1.2,4.8-.5,0-.9,0-1.4,0h0c.4-1.6.8-3.1,1.2-4.7h0c.4-1.6.8-3.2,1.3-4.7h0c1.5-4.8,3.1-9.5,4.7-14.2h0c1.7,0,3.4.2,5.1.2-3,8.3-6.1,16.7-9.1,25.1-1.7,0-3.4-.2-5.1-.3,0,0,0,0,0,0h0Z"/>
            <path d="M2287.1-416.9l-.6.4h-.7c-1.3-.2-2.5-.7-3.7-1.3h0c-1.3-.5-2.5-1.2-3.5-2.1h0c-.9-.8-1.6-1.8-2.1-2.8h0c1.4-.6,2.7-1.2,4.1-1.8h0c.3.6.8,1.1,1.2,1.6h0c.6.6,1.3,1.1,2,1.4h0c1,.4,2.2.7,3.3.7,1.7.1,3.3-.3,4.7-1.2h0c1.2-1.1,1.8-2.6,1.8-4.3h0c0-1.7,0-3.3,0-5-.1,0-.3,0-.4,0h0c-.4.6-.8,1.2-1.2,1.8h0c-.6.7-1.4,1.3-2.2,1.6h0c-1.2.5-2.4.7-3.7.6-1.9,0-3.7-.6-5.3-1.6h0c-1.6-1.1-2.9-2.6-3.7-4.3h0c-1-2.2-1.5-4.5-1.4-6.9h0c0-2.4.4-4.7,1.3-6.9h0c.8-1.8,2.1-3.3,3.7-4.3h0c1.6-1,3.5-1.4,5.4-1.4,1.3,0,2.6.3,3.8.9h0c.9.5,1.7,1.1,2.3,1.9h0c.5.6.9,1.2,1.3,1.9h0c.1,0,.2,0,.4,0,0-1.4,0-2.8,0-4.2h0c1.6,0,3.3,0,4.9.1,0,8.6,0,17.3.1,25.9h0c0,1.9-.4,3.8-1.5,5.5h0c-1,1.4-2.4,2.5-4.1,3.1-1.7,0-3.5,0-5.1.3l-.7.5h0s0,0,0,0h0s0,0,0,0h0ZM2287-431.5c1.3,0,2.5-.2,3.5-.9h0c1-.7,1.8-1.7,2.2-2.8h0c.5-1.4.8-2.9.7-4.5h0c0-1.5-.3-3.1-.8-4.5h0c-.4-1.2-1.2-2.3-2.2-3.1h0c-1-.8-2.3-1.2-3.6-1.2-1.3,0-2.6.3-3.6,1h0c-1,.8-1.7,1.8-2.2,3h0c-.5,1.4-.7,2.9-.7,4.4h0c0,1.5.2,3,.8,4.4h0c.4,1.2,1.2,2.2,2.2,3h0c1.1.7,2.3,1.1,3.6,1.2h0s0,0,0,0h0s0,0,0,0h0Z"/>
            <path d="M2305.2-426.5c0-8.5,0-17,0-25.5h0c1.6,0,3.3,0,4.9,0,0,1.4,0,2.7,0,4.1h0c0,0,.2,0,.3,0,.4-1.3,1.3-2.5,2.5-3.3h0c1.2-.8,2.6-1.2,4-1.2.4,0,.7,0,1.1,0,.3,0,.7,0,1,.1,0,1.6,0,3.2,0,4.8h0c-.3,0-.7-.2-1.1-.2-.5,0-1.1-.1-1.6-.1-1.1,0-2.2.2-3.2.7h0c-.9.5-1.6,1.1-2.2,2h0c-.5.9-.8,1.9-.8,3h0c0,5.2,0,10.4,0,15.5-1.7,0-3.4,0-5,0h0Z"/>
            <path d="M2323.8-417.1c.4-1.4.8-2.7,1.2-4.1h0c.2,0,.4,0,.6.1.8.2,1.6.3,2.4.2.7-.1,1.3-.4,1.8-1h0c.6-.7,1-1.5,1.2-2.5h0c.2-.6.4-1.2.6-1.9h0c-3.3-8.6-6.6-17.2-9.8-25.7h0c1.8,0,3.7,0,5.5,0,1.7,4.8,3.4,9.7,5.1,14.5h0c.6,1.6,1,3.2,1.4,4.8h0c.4,1.6.8,3.2,1.2,4.8-.5,0-1,0-1.6,0h0c.4-1.6.9-3.2,1.3-4.8h0c.4-1.6.9-3.2,1.5-4.8h0c1.7-4.8,3.5-9.7,5.2-14.5h0c1.8,0,3.6,0,5.5,0-3.7,9.7-7.5,19.4-11.2,29.1h0c-.4,1.2-1.1,2.4-1.9,3.4h0c-.7.9-1.7,1.6-2.7,2.1h0c-1.2.5-2.4.7-3.6.7-.7,0-1.4,0-2.1-.2-.4,0-.9-.1-1.3-.3h-.1q0-.1,0-.1h0s0,0,0,0h0s0,0,0,0h0Z"/>
            <path d="M2363.1-451.9c0,1.4,0,2.7,0,4.1-4.7,0-9.3,0-14,0h0c0-1.4,0-2.7,0-4.1h0c4.7,0,9.3,0,14,0ZM2352.9-457.9c1.7,0,3.4,0,5.1,0,0,8.3,0,16.5,0,24.8h0c0,.8.2,1.6.7,2.2h0c.6.5,1.4.8,2.2.7.3,0,.7,0,1-.1.4,0,.7-.1,1.1-.2.3,1.3.6,2.7.9,4h0c-.6.2-1.1.3-1.7.4-.6,0-1.2.1-1.8.1-2,0-3.9-.5-5.4-1.8h0c-1.3-1.4-2-3.1-1.9-5h0c0-8.4,0-16.8,0-25.2h0s0,0,0,0h0s0,0,0,0h0Z"/>
            <path d="M2378.7-426c-2.3,0-4.5-.4-6.5-1.5h0c-1.8-1.1-3.3-2.6-4.2-4.5h0c-1-2.2-1.5-4.5-1.5-6.9h0c0-2.4.5-4.8,1.5-6.9h0c.9-1.9,2.3-3.6,4.1-4.7h0c1.9-1.1,4-1.8,6.2-1.8,1.4,0,2.9.2,4.2.7h0c1.4.5,2.6,1.2,3.7,2.2h0c1.1,1.1,2,2.4,2.6,3.9h0c.7,1.9,1,3.9.9,5.9h0c0,.6,0,1.2,0,1.8-6.8.1-13.6.2-20.4.3h0c0-1.3,0-2.5,0-3.8h0c6,0,11.9,0,17.9-.2-.8.4-1.6.9-2.4,1.3h0c0-1.4-.2-2.8-.7-4.1h0c-.4-1.1-1.2-2.1-2.2-2.8h0c-1.1-.7-2.3-1-3.6-1-1.3,0-2.6.4-3.7,1.1h0c-1,.7-1.8,1.6-2.3,2.7h0c-.5,1.2-.8,2.4-.8,3.7h0c0,.9,0,1.7,0,2.6h0c0,1.5.3,3.1.9,4.5h0c.6,1.1,1.4,2.1,2.5,2.7h0c1.2.6,2.5.9,3.8.9.9,0,1.7-.2,2.6-.4h0c.7-.3,1.4-.7,2-1.3h0c.6-.6,1-1.3,1.3-2h0c1.6.3,3.1.7,4.7,1-.4,1.3-1.1,2.5-2.1,3.5h0c-1,1.1-2.2,1.9-3.6,2.4h0c-1.6.6-3.2.9-4.9.9h0s0,0,0,0h0Z"/>
            <path d="M2406-452.6c0,1.4,0,2.7,0,4.1-4.6.1-9.1.2-13.7.3h0c0-1.4,0-2.7,0-4.1h0c4.6,0,9.2-.2,13.7-.3ZM2396-458.5c1.7,0,3.3,0,5,0,0,8.2,0,16.5,0,24.7h0c0,.8.2,1.6.6,2.2h0c.6.5,1.3.7,2.1.7.3,0,.7,0,1-.1.4,0,.7-.1,1.1-.2.3,1.3.6,2.7.9,4h0c-.5.2-1.1.3-1.7.4-.6,0-1.2.2-1.8.2-2,.1-3.8-.4-5.3-1.7h0c-1.3-1.4-2-3.1-1.9-5h0c0-8.4,0-16.8,0-25.1h0s0,0,0,0h0s0,0,0,0h0Z"/>
          </g>
        </g>
      </g>
    </g>
  </g>
  <g>
    <image width="1200" height="800" transform="translate(-452.3 493.5)" xlink:href="Resurs 1-4.png"/>
    <g class="st3">
      <g id="Lager_1-24" data-name="Lager_1-2">
        <g>
          <g>
            <path class="st7" d="M208,885.6c0-9,.4-18,.6-27.1h0c10.7-.1,21.5-.6,32.1-1.9,0,8.7.3,17.5,0,26.2-10.7,2-21.8,2.3-32.6,2.8h0Z"/>
            <path class="st5" d="M233.1,862.7c.4,0,.8,0,1.1.1.3.2.6.3.9.5,1.9,2,2.7,4.6,2.5,7.3h0c0,3.4-.9,7-3.8,8.9l-1.3.4h-1.3c-.4-.3-.8-.5-1.2-.6l-.9-.9c-1.3-1.9-2-4.2-2-6.6h0c.2-3.5,1.5-6.9,4.6-8.7l1.3-.3Z"/>
            <path class="st6" d="M220.5,868.5c0-2.3-1-4.1-3.1-4.9h-1c-2.8.4-4.5,2.5-4.6,5.3h0c0,2.4,1.2,4.1,3.3,5h1c2.7-.5,4.3-2.6,4.4-5.4h0Z"/>
          </g>
          <g>
            <path d="M40.4,882.5c0-8.5-.8-16.9-.8-25.4h0c1.7.2,3.4.3,5.2.4,1.2,0,2.3.5,3.3,1.2h0c.9.8,1.6,1.8,2,3h0c.4,1.4.7,2.8.7,4.2h0c0,1.4-.2,2.8-.6,4.1h0c-.4,1.1-1,2-1.9,2.7h0c-.9.6-2,.8-3,.7l-3.9-.3h0c0-1.1,0-2.2-.1-3.3h0c1.2.1,2.4.2,3.7.3.6,0,1.3,0,1.8-.4h0c.5-.4.9-.9,1.1-1.5h0c.3-.8.4-1.6.4-2.4h0c0-.9-.1-1.7-.4-2.5h0c-.2-.7-.6-1.2-1.1-1.7h0c-.6-.4-1.3-.7-2-.7-1,0-1.9-.1-2.9-.2h0c.2,7.3.9,14.7.7,22-.7,0-1.4-.1-2-.2h0ZM48.7,883.2c-1.5-3.8-2.7-7.8-4.1-11.7h0c.9,0,1.7.2,2.6.2,1.5,3.9,3,7.8,4.6,11.7-1,0-2.1-.1-3.1-.2h0Z"/>
            <path d="M60.1,884.2c-1.4,0-2.7-.5-3.7-1.4h0c-1.1-.9-2-2.1-2.4-3.5h0c-.6-1.7-.9-3.4-.9-5.2h0c-.1-1.8.1-3.5.7-5.2h0c.4-1.3,1.2-2.5,2.3-3.4h0c1-.8,2.2-1.2,3.5-1.1.8,0,1.7.3,2.4.6h0c.8.5,1.6,1.1,2.2,1.8h0c.8.9,1.4,1.9,1.7,3h0c.5,1.4.7,2.9.6,4.5h0c0,.4,0,.9,0,1.3-4-.1-8.1-.2-12.1-.4h0c0-.9,0-1.9,0-2.8h0c3.5.2,7,.3,10.5.4-.5.3-1,.6-1.5.9h0c0-1.1-.2-2.1-.5-3.1h0c-.2-.8-.7-1.6-1.3-2.2h0c-.6-.5-1.3-.8-2.1-.8-.8,0-1.5.2-2.1.7h0c-.6.5-1,1.2-1.3,2h0c-.3.9-.5,1.8-.5,2.8h0c0,.6,0,1.3,0,1.9h0c0,1.2.1,2.3.5,3.4h0c.3.8.9,1.5,1.5,2.1h0c.6.5,1.4.8,2.2.8.5,0,1,0,1.5-.2h0c.5-.2.9-.5,1.2-.9h0c.4-.4.6-.9.8-1.5h0c1,.3,2,.6,3,.9h0c-.2.9-.7,1.8-1.3,2.6h0c-.6.7-1.4,1.3-2.2,1.7h0c-.9.4-1.8.6-2.8.5h0s0,0,0,0h0Z"/>
            <path d="M74.2,884.3c-2.1-6.5-4.1-13-6.4-19.4h0c1.2,0,2.3,0,3.5,0,1.2,3.6,2.2,7.4,3.5,11h0c.4,1.2.7,2.4,1,3.6h0c.3,1.2.5,2.4.8,3.6-.3,0-.7,0-1,0h0c.3-1.2.6-2.4.8-3.6h0c.3-1.2.6-2.4.9-3.6h0c1-3.7,2.3-7.2,3.3-10.9h0c1.2,0,2.5,0,3.7,0-2,6.4-4.3,12.7-6.4,19.1-1.2,0-2.4,0-3.6,0,0,0,0,0,0,0h0Z"/>
            <path d="M94.4,892.3l-.5.3h-.5c-.9-.1-1.8-.5-2.7-.9h0c-.9-.4-1.7-.9-2.5-1.6h0c-.6-.6-1.1-1.3-1.5-2.1h0c1-.5,1.9-1,2.9-1.4h0c.3.4.5.8.9,1.2h0c.4.4.9.8,1.4,1.1h0c.7.3,1.6.5,2.4.5,1.2,0,2.4-.3,3.4-1h0c.9-.8,1.4-2,1.3-3.2h0c0-1.3,0-2.5,0-3.8-.1,0-.2,0-.3,0h0c-.3.5-.6.9-.9,1.4h0c-.4.5-1,1-1.6,1.3h0c-.8.4-1.8.5-2.7.5-1.4,0-2.7-.4-3.8-1.1h0c-1.2-.8-2.1-1.9-2.7-3.2h0c-.7-1.6-1.1-3.4-1-5.2h0c0-1.8.3-3.6,1-5.3h0c.6-1.3,1.5-2.5,2.6-3.3h0c1.2-.8,2.5-1.2,3.9-1.1,1,0,1.9.2,2.8.6h0c.6.4,1.2.8,1.7,1.4h0c.3.4.7.9.9,1.4h0c0,0,.2,0,.3,0,0-1.1,0-2.1,0-3.2h0c1.2,0,2.4,0,3.6,0,0,6.5,0,13.1,0,19.6h0c0,1.5-.3,2.9-1.1,4.1h0c-.7,1.1-1.8,1.9-3,2.4-1.2,0-2.5.1-3.7.3l-.5.4h0,0s0,0,0,0h0,0,0ZM94.3,881.3c.9,0,1.8-.2,2.6-.7h0c.7-.5,1.3-1.3,1.6-2.2h0c.4-1.1.6-2.2.5-3.4h0c0-1.2-.2-2.3-.6-3.4h0c-.3-.9-.9-1.7-1.6-2.3h0c-.8-.6-1.7-.9-2.6-.9-1,0-1.9.3-2.6.8h0c-.7.6-1.3,1.4-1.6,2.3h0c-.4,1.1-.5,2.2-.5,3.3h0c0,1.1.2,2.3.6,3.3h0c.3.9.9,1.7,1.6,2.2h0c.8.6,1.7.8,2.6.8h0s0,0,0,0h0,0s0,0,0,0h0Z"/>
            <path d="M107.6,884.9c0-6.5,0-12.9,0-19.4h0c1.2,0,2.4,0,3.6,0,0,1,0,2.1,0,3.1h0c0,0,.1,0,.2,0,.3-1,1-1.9,1.9-2.5h0c.9-.6,1.9-.9,3-.9.3,0,.6,0,.8,0,.3,0,.5,0,.8,0,0,1.2,0,2.4,0,3.7h0c-.3,0-.5-.1-.8-.1-.4,0-.8,0-1.2,0-.8,0-1.6.2-2.4.5h0c-.7.4-1.2.9-1.6,1.5h0c-.4.7-.6,1.5-.6,2.3h0c0,3.9,0,7.8,0,11.8-1.2,0-2.5,0-3.7,0h0Z"/>
            <path d="M121.4,892c.3-1,.6-2.1.9-3.1h0c.1,0,.3,0,.4.1.6.2,1.2.2,1.8.2.5,0,1-.3,1.4-.7h0c.5-.5.8-1.2.9-1.9h0c.1-.5.3-1,.4-1.4h0c-2.5-6.5-5-13.1-7.4-19.6h0c1.4,0,2.8,0,4.1,0,1.3,3.7,2.6,7.4,3.8,11.1h0c.4,1.2.8,2.4,1.1,3.7h0c.3,1.2.6,2.4.9,3.6-.4,0-.8,0-1.2,0h0c.3-1.2.7-2.4,1-3.6h0c.3-1.2.7-2.5,1.1-3.7h0c1.3-3.7,2.6-7.4,3.9-11.1h0c1.4,0,2.8,0,4.1,0-2.8,7.4-5.7,14.8-8.5,22.2h0c-.3.9-.8,1.8-1.5,2.6h0c-.6.7-1.3,1.2-2,1.6h0c-.9.4-1.8.5-2.8.5-.5,0-1.1,0-1.6-.2-.3,0-.7-.1-1-.2h0q0,0,0,0h0,0Z"/>
            <path d="M151.2,865.6c0,1,0,2.1,0,3.1-3.5,0-7.1,0-10.6,0h0c0-1,0-2.1,0-3.1h0c3.5,0,7.1,0,10.6,0ZM143.4,860.9c1.3,0,2.6,0,3.9,0,0,6.3,0,12.6,0,18.9h0c0,.6.1,1.2.5,1.7h0c.4.4,1,.6,1.6.5.3,0,.5,0,.8,0,.3,0,.6,0,.8-.1.2,1,.4,2,.7,3.1h0c-.4.1-.9.2-1.3.3-.5,0-.9.1-1.4.1-1.5,0-2.9-.4-4.1-1.3h0c-1-1-1.5-2.4-1.5-3.9h0c0-6.4,0-12.8,0-19.3h0s0,0,0,0h0Z"/>
            <path d="M162.9,885.4c-1.7,0-3.4-.4-4.9-1.2h0c-1.4-.8-2.5-2-3.2-3.5h0c-.8-1.6-1.1-3.4-1.1-5.3h0c0-1.8.3-3.6,1.1-5.3h0c.7-1.5,1.8-2.7,3.1-3.6h0c1.4-.9,3-1.3,4.7-1.3,1.1,0,2.2.2,3.2.5h0c1,.4,2,1,2.8,1.7h0c.9.8,1.5,1.9,1.9,3h0c.5,1.4.7,3,.7,4.5h0c0,.5,0,.9,0,1.4-5.1,0-10.3,0-15.4,0h0c0-1,0-1.9,0-2.9h0c4.5,0,9,0,13.5,0-.6.3-1.2.6-1.8,1h0c0-1.1-.2-2.1-.5-3.2h0c-.3-.9-.9-1.6-1.6-2.1h0c-.8-.5-1.7-.8-2.7-.8-1,0-1.9.3-2.8.8h0c-.8.5-1.4,1.2-1.7,2.1h0c-.4.9-.6,1.8-.6,2.8h0c0,.7,0,1.3,0,2h0c0,1.2.2,2.3.7,3.4h0c.4.9,1.1,1.6,1.9,2.1h0c.9.5,1.9.7,2.9.7.7,0,1.3-.1,1.9-.3h0c.6-.2,1.1-.5,1.5-.9h0c.4-.4.8-1,1-1.5h0c1.2.3,2.4.5,3.5.8-.3,1-.8,1.9-1.6,2.6h0c-.8.8-1.7,1.4-2.7,1.8h0c-1.2.4-2.4.7-3.7.7h0s0,0,0,0h0Z"/>
            <path d="M183.4,865.4c0,1,0,2.1,0,3.1-3.4,0-6.8.1-10.2.1h0c0-1,0-2.1,0-3.1h0c3.4,0,6.8,0,10.2,0ZM176,860.9c1.2,0,2.5,0,3.7,0,0,6.2,0,12.5,0,18.7h0c0,.6.1,1.2.5,1.7h0c.4.4,1,.6,1.6.5.3,0,.5,0,.7,0,.3,0,.5,0,.8-.2.2,1,.4,2,.6,3h0c-.4.1-.8.3-1.3.3-.4,0-.9.1-1.3.1-1.5,0-2.8-.4-3.9-1.3h0c-1-1-1.4-2.4-1.4-3.8h0c0-6.4,0-12.7,0-19.1h0s0,0,0,0h0Z"/>
          </g>
        </g>
      </g>
    </g>
  </g>
</svg>