<?xml version="1.0" encoding="UTF-8"?><svg id="b" xmlns="http://www.w3.org/2000/svg" width="1102.29" height="229.38" viewBox="0 0 1102.29 229.38"><defs><style>.d{fill:#fff;}</style></defs><g id="c"><path class="d" d="M867.59,137.38c-2.19-.51-4.42-.84-6.61-1.35-5.75-1.33-8.12-3.53-8.29-9.42-.44-15.43-.52-30.88-.64-46.32-.09-11-.41-12.3,10.69-12.34,3.35-.01,5.49-1.77,6.2-5.1,1.76-8.25,3.64-16.47,5.2-24.76.69-3.68-1.17-6.13-4.94-6.18-3.32-.04-6.53.02-9.8-.04-5.55-.1-7.22-1.82-7.33-7.44-.1-4.96-.12-9.93-.02-14.89.08-3.75-.85-6.76-3.77-8.48-2.79-1.65-6.34-1.31-8.97.59l-43.84,31.8c-3.66,3.33-5.42,7.27-5.2,12.26l.05,14.21c0,1.61-.06,8.01,7.3,8.01,2.8,0,5.01,2.3,4.92,5.09-.13,3.92,0,7.85.03,11.77.18,20.52.01,41.05.7,61.55.4,11.9,5.74,21.72,16.34,27.94,12.91,7.57,26.48,6.61,40.2,2.59,4.03-1.18,6.85-3.89,7.88-7.71,2.16-8.02,4.05-16.13,5.52-24.3.74-4.12-1.51-6.52-5.61-7.48Z"/><path class="d" d="M1090.74,67.95c3.35-.01,5.49-1.77,6.2-5.1,1.76-8.25,3.64-16.47,5.2-24.76.69-3.68-1.17-6.13-4.94-6.18-3.32-.04-6.53.02-9.8-.04-5.55-.1-7.22-1.82-7.33-7.44-.1-4.96-.12-9.93-.02-14.89.08-3.75-.85-6.76-3.77-8.48-2.79-1.65-6.34-1.31-8.97.59l-43.84,31.8c-3.66,3.33-5.42,7.27-5.2,12.26l.05,14.21c0,1.61-.06,8.01,7.3,8.01,2.8,0,5.01,2.3,4.92,5.09-.13,3.92,0,7.85.03,11.77.18,20.52.01,41.05.7,61.55.4,11.9,5.74,21.72,16.34,27.94,12.91,7.57,26.48,6.61,40.2,2.59,4.03-1.18,6.85-3.89,7.88-7.71,2.16-8.02,4.05-16.13,5.52-24.3.74-4.12-1.51-6.52-5.61-7.48-2.19-.51-4.42-.84-6.61-1.35-5.75-1.33-8.12-3.53-8.29-9.42-.44-15.43-.52-30.88-.64-46.32-.09-11-.41-12.3,10.69-12.34Z"/><path class="d" d="M530.26,37.16c-4.08-5.66-5.98-6.36-12.15-3.29-6.57,3.27-13.14,3.4-19.98,1.27-6.44-2-12.83-4.22-19.38-5.76-41.18-9.67-80.39,21.37-81.25,63.72,0,0-2.58,57.86,50.94,66.66,7.24,1.57,14.99.67,22.42,1.57,4.21.51,8.72,1.62,12.26,3.82,5.49,3.41,4.59,9.97-1.54,11.81-3.72,1.11-8.1,1.26-11.94.54-12.48-2.37-27.8-8.58-40.27-11.03-16.35-3.22-30.96,2.92-36.94,16.67-3.03,6.97-3.66,12.86-3.12,19.36.61,7.3,2.87,14.42,6.95,20.51,2.36,3.52,5.64,5.88,7.39,6.25,11.17,2.37-1.42-25.83,28.2-17.68,3.43.96,14.58,5.93,23.54,10.22,13.59,5.71,27.09,6.46,39.92,4.39,26.14-3.83,42.6-31.12,33.71-56.02-3.82-10.7-11.38-17.6-21.46-22.08-2.14-.95-2.65-1.77-.99-3.04.52-.4,1.37-1.05,1.85-1.49,17.64-15.75,23.63-35.4,19.97-58.5-.9-5.7-1.8-11.78-.73-17.3.92-4.77,4.4-9.15,7.19-13.42,3.12-4.78,3.36-5.97.13-10.56-1.55-2.21-3.14-4.4-4.72-6.59ZM479.85,115.1c-5.49,7.78-15.57,9.66-23.61,3.96-10.82-7.67-14.62-18.89-14.1-31.56.2-4.79,1.37-9.93,3.54-14.17,4.87-9.54,15.75-11.74,24.42-5.31,10.29,7.64,14.19,18.5,14.65,30.87.31,6.02-1.48,11.36-4.9,16.21Z"/><path class="d" d="M170.33,114.21l39.97-10.56c6.15-1.63,12.3-3.25,18.45-4.88,4.48-1.18,8.96-2.11,12.26-5.71,8.21-8.95,5.83-25.56.91-35.47-5.69-11.46-16.52-20.51-28.12-25.59-21.25-9.32-47.46-5.88-67.5,5.56-53.33,30.45-43.48,103.26,1.65,130.79,33.74,20.58,89.23.52,96.39-32.54.22-1.02.39-2.05.48-3.08.7-7.95-1.72-19.92-10.37-19.55-5.6.24-8.65,5.61-12.48,9.1-3.22,2.93-5.79,5.38-15.4,9.63-8.64,3.82-23.82,4.83-35.29-3.28-2.53-1.79-8.5-10.15-4.92-13.29.72-.63,3.05-.89,3.96-1.13ZM160.2,87.57c-3.67.65-3.89-.97-3.59-4.74.83-10.79,9.75-19.89,20.53-21.23,5.31-.66,12.43,1.01,15.68,5.62,3.53,5.01.71,9.95-4.44,11.98-6.38,2.51-13.23,4.1-19.81,5.99-2.74.79-5.56,1.89-8.37,2.39Z"/><path class="d" d="M932.79,114.21c13.32-3.52,26.65-7.04,39.97-10.56l18.45-4.88c4.48-1.18,8.96-2.11,12.26-5.71,8.21-8.95,5.83-25.56.91-35.47-5.69-11.46-16.52-20.51-28.12-25.59-21.25-9.32-47.46-5.88-67.5,5.56-53.33,30.45-43.48,103.26,1.65,130.79,33.74,20.58,89.23.52,96.39-32.54.22-1.02.39-2.05.48-3.08.7-7.95-1.72-19.92-10.37-19.55-5.6.24-8.65,5.61-12.48,9.1-3.22,2.93-5.79,5.38-15.4,9.63-8.64,3.82-23.82,4.83-35.29-3.28-2.53-1.79-8.5-10.15-4.92-13.29.72-.63,3.05-.89,3.96-1.13ZM922.66,87.57c-3.67.65-3.89-.97-3.59-4.74.83-10.79,9.75-19.89,20.53-21.23,5.31-.66,12.43,1.01,15.68,5.62,3.53,5.01.71,9.95-4.44,11.98-6.38,2.51-13.23,4.1-19.81,5.99-2.74.79-5.56,1.89-8.37,2.39Z"/><path class="d" d="M406.59,37.18c-2.52-4.87-7.44-5.25-12.01-5.32h-46.34c-4.85-.01-9.27,1.19-11.66,5.89-2.34,4.61-.92,9.01,2.18,12.54,5.17,5.9,5.44,12.22,2.96,19.19-5.12,14.41-10.13,28.86-15.2,43.3-.26.73-.63,1.42-.96,2.13-.38-.77-.87-1.51-1.12-2.32-4.27-13.51-8.2-27.14-12.88-40.51-2.87-8.21-2.98-15.28,2.1-22.94,6.02-9.07,1.11-17.23-9.86-17.29h-46.02c-5.1-.03-9.81.88-12.31,5.86-2.48,4.97-.39,9.17,2.51,13.45,4.07,6.02,8.44,12.06,11.17,18.71,6.27,15.29,11.61,30.95,17.35,46.46,6.08,16.46,12.1,32.94,18.3,49.35,3.43,9.07,5.6,10.38,15.37,10.38,9.92,0,19.84.02,29.77,0,9.37-.02,12.02-1.78,15.39-10.59,8.79-23.01,17.49-46.05,26.26-69.06,6.2-16.28,11.45-33,23.06-46.64,3.05-3.58,4.3-8.04,1.94-12.6Z"/><path class="d" d="M102.54,31.14c-17.22-6.99-31.99-3.67-45.82,10.27-.77.78-1.69,1.41-2.53,2.11-.25-1.16-.64-2.3-.71-3.47-.4-6.2-1.99-8.73-7.03-8.83-12.17-.26-24.36-.41-36.51.07-7.61.3-11.54,6.49-9.32,13.54.69,2.21,1.95,4.34,3.33,6.22,4.46,6.06,6.34,12.85,6.34,20.27,0,21.42.03,42.84-.04,64.26,0,2.8.1,5.84-.91,8.35-2.12,5.27-4.82,10.33-7.5,15.35-4.12,7.71-1.13,14.58,7.34,16.33,1.64.34,3.35.47,5.02.47,13.87.04,27.73.04,41.6,0,1.79,0,3.61-.18,5.36-.53,7.81-1.58,11.04-8.2,7.41-15.34-1.37-2.7-3.52-5.06-4.6-7.85-1.65-4.23-3.46-8.65-3.8-13.09-.61-7.96-.17-15.99-.17-23.99.05,0,.09,0,.14,0,0-9.02-.02-18.03.03-27.04,0-1.22.35-2.45.63-3.65,1.09-4.7,2.92-8.79,8.24-10.05,5.66-1.34,9.94.86,12.41,5.74,2.93,5.78,7.48,7.05,13.38,6.69,6.2-.38,7.07-.68,9.16-6.41,3.16-8.66,6.31-17.33,9.33-26.04,4.01-11.57.65-18.72-10.78-23.36Z"/><path class="d" d="M772.37,31.97l-47.69-.05c-7.59.12-12.69,6.26-11.07,12.99.66,2.74,2.39,5.32,4,7.72,2.42,3.61,3.34,7.32,2.02,11.51-2.77,8.72-5.54,17.45-8.3,26.17l-6.3,18.34c-.58.23-1.32.04-1.63-.64-.04-.09-.08-.19-.12-.28l-17.45-42.07c-.04-.13-.09-.25-.13-.38-.78-2.8-11.15-37.68-43.3-37.68-7.62,0-27.29.57-42,13.83-1.25,1.01-3.13.3-3.4-1.29v-.04c-.98-5.93-1.81-7.94-6.69-8.05h-37.42c-8.62.42-11.85,7.92-7.66,15.55.54.99,1.07,2,1.75,2.89,5.37,6.94,6.94,14.94,6.91,23.5-.08,18.6-.15,37.21.04,55.81.11,10.38-1.13,20.23-7.93,28.63-.56.69-.93,1.54-1.31,2.35-3.14,6.62,0,13.21,7.13,14.84,1.63.37,3.34.61,5.01.62,14.43.05,28.86.05,43.29,0,1.56,0,3.15-.22,4.68-.54,7.6-1.57,10.85-8.14,7.39-15.14-1.34-2.71-3.51-5.06-4.59-7.86-1.73-4.47-3.05-7.78-3.91-13.4-1.37-8.95-.85-23.99-.85-23.99-.02-5.4-.65-20.6.61-30.69,0,0,.52-7.38,8.57-11.63,1.92-1.02,5.13-2.64,10.62-.92,1.5.47,6.2,2.25,7.75,2.5,18.3,2.9,24.46-10.18,24.17-18.96-.11-3.44,4.34-5.05,6.27-2.2,5.35,7.9,3,18.78-5.77,25.99-7.08,5.83-3.66,14.84-3.66,14.85l33.73,72.32-8.7,25.34c-1.93,5.61,2.24,11.45,8.17,11.45h30.54c3.66,0,6.92-2.3,8.15-5.75l34.75-98.01c.12-.35.25-.7.37-1.05l.03-.08h0c6.06-17.23,11.35-34.79,23.45-49.42,5.85-7.07.19-16.82-9.51-17.07Z"/></g></svg>